# xmcd
#
# Track frame offsets:
#	150
#	15785
#	32580
#	51381
#	69866
#	88561
#	103236
#	122501
#	141082
#	159438
#	178560
#	196226
#	213847
#	232142
#	249025
#	267338
#	285120
#	302483
#	320814
#	339499
#
# Disc length: 4745 seconds
#
# Revision: 1
# Processed by: cddbd v1.4PL0 Copyright (c) Steve Scherf et al.
# Submitted via: audiograbber 1.80
#
DISCID=07128714
DTITLE=Promo Only - Urban Radio August 2001
DYEAR=1900
DGENRE=
TTITLE0=Hi - Tek
TTITLE1=Luther Vandross - Take You Out (Remix)
TTITLE2=Krayzie Bone - Hard Time Hustlin
TTITLE3=Sisqo - Dance For Me
TTITLE4=P. Diddy and Family - Bad Boy For Life
TTITLE5=Lil Bow Wow - Ghetto Girls
TTITLE6=Fabolous Feat. Nate Dogg - Can't Deny It
TTITLE7=Trick Daddy - I'm A Thug
TTITLE8=Brian McKnight - Love Of My Life
TTITLE9=Big Pun Feat. Tony Sunshine - Mama
TTITLE10=Res - Sittin' Back
TTITLE11=The Product G&B - Cluck Cluck
TTITLE12=Tamia - Tell Me Who
TTITLE13=IMX Feat. Mila J. - Clap Your Hands
TTITLE14=Sunshine Anderson - Lunch Or Dinner
TTITLE15=Snoop Dogg Feat. Tyrese and Mr. Tan - Just A Baby Boy
TTITLE16=Christina Milian - AM To PM
TTITLE17=Ruff Endz - Cash, Money, Cars, Clothes
TTITLE18=Jaheim - Just In Case
TTITLE19=The Merciless R.N.S. Feat. Jasmine Lopez - Tonigh's The Night
EXTD=
EXTT0=
EXTT1=
EXTT2=
EXTT3=
EXTT4=
EXTT5=
EXTT6=
EXTT7=
EXTT8=
EXTT9=
EXTT10=
EXTT11=
EXTT12=
EXTT13=
EXTT14=
EXTT15=
EXTT16=
EXTT17=
EXTT18=
EXTT19=
PLAYORDER=
